<svg width="14" height="16" viewBox="0 0 14 16" fill="none" xmlns="http://www.w3.org/2000/svg">
<path d="M11.6667 7.33337H2.33333C1.59695 7.33337 1 7.93033 1 8.66671V13.3334C1 14.0698 1.59695 14.6667 2.33333 14.6667H11.6667C12.403 14.6667 13 14.0698 13 13.3334V8.66671C13 7.93033 12.403 7.33337 11.6667 7.33337Z" stroke="#FF5917" stroke-linecap="round" stroke-linejoin="round"/>
<path d="M3.6665 7.33337V4.66671C3.6665 3.78265 4.01769 2.93481 4.64281 2.30968C5.26794 1.68456 6.11578 1.33337 6.99984 1.33337C7.88389 1.33337 8.73174 1.68456 9.35686 2.30968C9.98198 2.93481 10.3332 3.78265 10.3332 4.66671V7.33337" stroke="#FF5917" stroke-linecap="round" stroke-linejoin="round"/>
</svg>
