<svg width="14" height="16" viewBox="0 0 14 16" fill="none" xmlns="http://www.w3.org/2000/svg">
<path d="M1 4H13" stroke="#FF0000" stroke-linecap="round" stroke-linejoin="round"/>
<path d="M4.3335 4.00004V2.66671C4.3335 2.31309 4.47397 1.97395 4.72402 1.7239C4.97407 1.47385 5.31321 1.33337 5.66683 1.33337H8.3335C8.68712 1.33337 9.02626 1.47385 9.27631 1.7239C9.52635 1.97395 9.66683 2.31309 9.66683 2.66671V4.00004M11.6668 4.00004V13.3334C11.6668 13.687 11.5264 14.0261 11.2763 14.2762C11.0263 14.5262 10.6871 14.6667 10.3335 14.6667H3.66683C3.31321 14.6667 2.97407 14.5262 2.72402 14.2762C2.47397 14.0261 2.3335 13.687 2.3335 13.3334V4.00004H11.6668Z" stroke="#FF0000" stroke-linecap="round" stroke-linejoin="round"/>
</svg>
