<svg width="24" height="24" viewBox="0 0 24 24" fill="none" xmlns="http://www.w3.org/2000/svg">
<path d="M18 8.00092C19.6569 8.00092 21 6.65777 21 5.00092C21 3.34406 19.6569 2.00092 18 2.00092C16.3431 2.00092 15 3.34406 15 5.00092C15 6.65777 16.3431 8.00092 18 8.00092Z" stroke="#040405" stroke-linecap="round" stroke-linejoin="round"/>
<path d="M6 15C7.65685 15 9 13.6569 9 12C9 10.3431 7.65685 9 6 9C4.34315 9 3 10.3431 3 12C3 13.6569 4.34315 15 6 15Z" stroke="#040405" stroke-linecap="round" stroke-linejoin="round"/>
<path d="M18 22.0019C19.6569 22.0019 21 20.6587 21 19.0019C21 17.345 19.6569 16.0019 18 16.0019C16.3431 16.0019 15 17.345 15 19.0019C15 20.6587 16.3431 22.0019 18 22.0019Z" stroke="#040405" stroke-linecap="round" stroke-linejoin="round"/>
<path d="M8.58984 13.5117L15.4198 17.4917" stroke="#040405" stroke-linecap="round" stroke-linejoin="round"/>
<path d="M15.4098 6.50977L8.58984 10.4898" stroke="#040405" stroke-linecap="round" stroke-linejoin="round"/>
</svg>
