<svg width="12" height="12" viewBox="0 0 12 12" fill="none" xmlns="http://www.w3.org/2000/svg">
<path d="M5.10394 1.15013C5.47078 0.406957 6.53052 0.406958 6.89736 1.15013L7.82821 3.03592C7.97375 3.33077 8.25493 3.53523 8.58028 3.58278L10.6635 3.88728C11.4834 4.00712 11.8102 5.01496 11.2166 5.59312L9.71077 7.05984C9.4749 7.28958 9.36724 7.62071 9.4229 7.94524L9.77808 10.0161C9.9182 10.8331 9.06065 11.4561 8.32702 11.0702L6.4661 10.0916C6.17472 9.93837 5.82658 9.93837 5.5352 10.0916L3.67428 11.0702C2.94065 11.4561 2.0831 10.8331 2.22322 10.0161L2.5784 7.94524C2.63407 7.62071 2.5264 7.28958 2.29053 7.05984L0.784663 5.59312C0.191069 5.01496 0.517853 4.00712 1.33777 3.88728L3.42102 3.58278C3.74637 3.53523 4.02756 3.33077 4.1731 3.03592L5.10394 1.15013Z" fill="#FF5917"/>
</svg>
