<svg width="12" height="16" viewBox="0 0 12 16" fill="none" xmlns="http://www.w3.org/2000/svg">
<path d="M5.99992 12.6666C8.57725 12.6666 10.6666 10.5772 10.6666 7.99992C10.6666 5.42259 8.57725 3.33325 5.99992 3.33325C3.42259 3.33325 1.33325 5.42259 1.33325 7.99992C1.33325 10.5772 3.42259 12.6666 5.99992 12.6666Z" stroke="#FF5917" stroke-linecap="round" stroke-linejoin="round"/>
<path d="M6 6V8L7 9" stroke="#FF5917" stroke-linecap="round" stroke-linejoin="round"/>
<path d="M2.99324 4.4333L3.22657 1.87997C3.25651 1.54869 3.40919 1.24056 3.65465 1.01607C3.90011 0.791584 4.22061 0.66695 4.55324 0.666637H7.45324C7.78702 0.665283 8.10917 0.789169 8.35604 1.01382C8.60291 1.23847 8.75654 1.54754 8.78657 1.87997L9.01991 4.4333M9.00657 11.5666L8.77324 14.12C8.7432 14.4524 8.58957 14.7615 8.3427 14.9861C8.09584 15.2108 7.77369 15.3347 7.43991 15.3333H4.55324C4.21946 15.3347 3.89731 15.2108 3.65044 14.9861C3.40357 14.7615 3.24994 14.4524 3.21991 14.12L2.98657 11.5666C2.98657 11.5666 4 12.5 6 12.5C8 12.5 9.00657 11.5666 9.00657 11.5666Z" stroke="#FF5917" stroke-linecap="round" stroke-linejoin="round"/>
</svg>
