<svg width="14" height="16" viewBox="0 0 14 16" fill="none" xmlns="http://www.w3.org/2000/svg">
<path d="M13 6.66666C13 11.3333 7 15.3333 7 15.3333C7 15.3333 1 11.3333 1 6.66666C1 5.07536 1.63214 3.54923 2.75736 2.42402C3.88258 1.2988 5.4087 0.666656 7 0.666656C8.5913 0.666656 10.1174 1.2988 11.2426 2.42402C12.3679 3.54923 13 5.07536 13 6.66666Z" stroke="#FF5917" stroke-linecap="round" stroke-linejoin="round"/>
<path d="M7 8.66666C8.10457 8.66666 9 7.77123 9 6.66666C9 5.56209 8.10457 4.66666 7 4.66666C5.89543 4.66666 5 5.56209 5 6.66666C5 7.77123 5.89543 8.66666 7 8.66666Z" stroke="#FF5917" stroke-linecap="round" stroke-linejoin="round"/>
</svg>
