<svg width="24" height="24" viewBox="0 0 24 24" fill="none" xmlns="http://www.w3.org/2000/svg">
<path d="M13.73 21.0002C13.5542 21.3032 13.3018 21.5548 12.9982 21.7297C12.6946 21.9046 12.3504 21.9966 12 21.9966C11.6496 21.9966 11.3054 21.9046 11.0018 21.7297C10.6982 21.5548 10.4458 21.3032 10.27 21.0002M8.56 2.90016C9.62531 2.29904 10.8295 1.98757 12.0527 1.99678C13.2759 2.00599 14.4753 2.33556 15.5314 2.95265C16.5876 3.56974 17.4636 4.45281 18.0721 5.51388C18.6807 6.57494 19.0006 7.77695 19 9.00016V13.0002L8.56 2.90016ZM17 17.0002H2C2.79565 17.0002 3.55871 16.6841 4.12132 16.1215C4.68393 15.5589 5 14.7958 5 14.0002V9.00016C4.99859 7.87987 5.26608 6.77561 5.78 5.78016L17 17.0002Z" stroke="#040405" stroke-linecap="round" stroke-linejoin="round"/>
<path d="M1 1L23 23" stroke="#040405" stroke-linecap="round" stroke-linejoin="round"/>
</svg>
