<svg width="16" height="16" viewBox="0 0 16 16" fill="none" xmlns="http://www.w3.org/2000/svg">
<path d="M9.15337 14C9.03617 14.2021 8.86794 14.3698 8.66553 14.4864C8.46311 14.603 8.23363 14.6643 8.00004 14.6643C7.76645 14.6643 7.53697 14.603 7.33456 14.4864C7.13215 14.3698 6.96391 14.2021 6.84671 14M14.6667 11.3333H1.33337C1.86381 11.3333 2.37251 11.1226 2.74759 10.7476C3.12266 10.3725 3.33337 9.86378 3.33337 9.33334V6.00001C3.33337 4.76233 3.82504 3.57535 4.70021 2.70018C5.57538 1.82501 6.76236 1.33334 8.00004 1.33334C9.23772 1.33334 10.4247 1.82501 11.2999 2.70018C12.175 3.57535 12.6667 4.76233 12.6667 6.00001V9.33334C12.6667 9.86378 12.8774 10.3725 13.2525 10.7476C13.6276 11.1226 14.1363 11.3333 14.6667 11.3333Z" stroke="white" stroke-linecap="round" stroke-linejoin="round"/>
</svg>
