<svg width="28" height="26" viewBox="0 0 28 26" fill="none" xmlns="http://www.w3.org/2000/svg">
<path d="M11.3096 1.78326C12.4101 -0.446241 15.5893 -0.446241 16.6898 1.78326L18.4523 5.35398C18.889 6.23852 19.7325 6.8519 20.7086 6.99456L24.655 7.57139C27.1147 7.93092 28.0951 10.9544 26.3143 12.6889L23.4634 15.4657C22.7558 16.155 22.4328 17.1483 22.5997 18.1219L23.272 22.0413C23.6923 24.4921 21.1197 26.361 18.9188 25.2036L15.396 23.351C14.5219 22.8913 13.4775 22.8913 12.6033 23.351L9.08057 25.2036C6.87968 26.361 4.30704 24.4921 4.72739 22.0413L5.3996 18.1219C5.56658 17.1483 5.2436 16.155 4.53597 15.4657L1.68505 12.6889C-0.0957339 10.9544 0.884614 7.93092 3.34436 7.57139L7.29078 6.99456C8.26684 6.8519 9.11039 6.23852 9.54701 5.35398L11.3096 1.78326Z" fill="#E2E2F0"/>
</svg>
