<svg width="24" height="30" viewBox="0 0 24 30" fill="none" xmlns="http://www.w3.org/2000/svg">
<path fill-rule="evenodd" clip-rule="evenodd" d="M12 29.6668C12 29.6668 24 21.6668 24 12.3335C24 9.1509 22.7357 6.09865 20.4853 3.84821C18.2348 1.59778 15.1826 0.333496 12 0.333496C8.8174 0.333496 5.76515 1.59778 3.51472 3.84821C1.26428 6.09865 0 9.1509 0 12.3335C0 21.6668 12 29.6668 12 29.6668ZM16 12.3335C16 14.5426 14.2091 16.3335 12 16.3335C9.79086 16.3335 8 14.5426 8 12.3335C8 10.1244 9.79086 8.3335 12 8.3335C14.2091 8.3335 16 10.1244 16 12.3335Z" fill="#FF5917"/>
</svg>
