<svg width="16" height="16" viewBox="0 0 16 16" fill="none" xmlns="http://www.w3.org/2000/svg">
<path d="M10.6667 14V12.6667C10.6667 11.9594 10.3857 11.2811 9.88561 10.781C9.38551 10.281 8.70723 10 7.99999 10H3.33332C2.62608 10 1.9478 10.281 1.44771 10.781C0.947608 11.2811 0.666656 11.9594 0.666656 12.6667V14" stroke="#040405" stroke-linecap="round" stroke-linejoin="round"/>
<path d="M5.66667 7.33333C7.13943 7.33333 8.33333 6.13943 8.33333 4.66667C8.33333 3.19391 7.13943 2 5.66667 2C4.19391 2 3 3.19391 3 4.66667C3 6.13943 4.19391 7.33333 5.66667 7.33333Z" stroke="#040405" stroke-linecap="round" stroke-linejoin="round"/>
<path d="M11.3333 7.33333L12.6666 8.66667L15.3333 6" stroke="#040405" stroke-linecap="round" stroke-linejoin="round"/>
</svg>
